<svg xmlns="http://www.w3.org/2000/svg" viewBox="0 0 100 100" width="48" height="48">
  <circle cx="50" cy="50" r="45" fill="#a8edea" stroke="#fed6e3" stroke-width="2"/>
  <g fill="white">
    <!-- Modern ear shape -->
    <path d="M40 25 Q30 25 30 40 Q30 55 40 65 Q45 70 50 65 Q55 60 55 50 Q55 40 50 35 Q45 30 40 25 Z"/>
    <!-- Inner ear -->
    <path d="M40 40 Q37 40 37 45 Q37 50 40 50 Q43 50 43 45 Q43 40 40 40 Z" fill="#a8edea"/>
    <!-- Sound visualization -->
    <g stroke="white" stroke-width="2" fill="none">
      <path d="M65 35 Q75 45 65 55"/>
      <path d="M70 30 Q85 45 70 60"/>
      <path d="M75 25 Q95 45 75 65"/>
    </g>
    <!-- Audio waves -->
    <g fill="#fed6e3" opacity="0.7">
      <circle cx="68" cy="40" r="1"/>
      <circle cx="78" cy="35" r="1.5"/>
      <circle cx="72" cy="55" r="1"/>
    </g>
  </g>
</svg>
