<svg xmlns="http://www.w3.org/2000/svg" viewBox="0 0 100 100" width="48" height="48">
  <circle cx="50" cy="50" r="45" fill="#4facfe" stroke="#00f2fe" stroke-width="2"/>
  <g fill="white">
    <!-- Modern brain -->
    <path d="M50 20 C35 20, 25 30, 25 45 C25 50, 27 55, 30 58 C25 62, 25 68, 30 72 C35 75, 40 75, 45 72 C48 75, 52 75, 55 72 C60 75, 65 75, 70 72 C75 68, 75 62, 70 58 C73 55, 75 50, 75 45 C75 30, 65 20, 50 20 Z"/>
    <!-- Neural pathways -->
    <g stroke="#00f2fe" stroke-width="1.5" fill="none">
      <path d="M35 35 Q45 30 50 35 Q55 40 65 35"/>
      <path d="M30 45 Q40 40 50 45 Q60 50 70 45"/>
      <path d="M35 55 Q45 50 50 55 Q55 60 65 55"/>
    </g>
    <!-- Synapses -->
    <g fill="#00f2fe" opacity="0.8">
      <circle cx="40" cy="35" r="1.5"/>
      <circle cx="55" cy="38" r="1.5"/>
      <circle cx="45" cy="50" r="1.5"/>
      <circle cx="60" cy="52" r="1.5"/>
    </g>
    <!-- Brain activity -->
    <g stroke="white" stroke-width="1" fill="none" opacity="0.6">
      <path d="M40 25 Q45 20 50 25"/>
      <path d="M55 25 Q60 20 65 25"/>
    </g>
  </g>
</svg>
